<?xml version="1.0" encoding="UTF-8" standalone="no"?>
<!-- Created with Inkscape (http://www.inkscape.org/) -->

<svg
   xmlns:dc="http://purl.org/dc/elements/1.1/"
   xmlns:cc="http://creativecommons.org/ns#"
   xmlns:rdf="http://www.w3.org/1999/02/22-rdf-syntax-ns#"
   xmlns:svg="http://www.w3.org/2000/svg"
   xmlns="http://www.w3.org/2000/svg"
   xmlns:sodipodi="http://sodipodi.sourceforge.net/DTD/sodipodi-0.dtd"
   xmlns:inkscape="http://www.inkscape.org/namespaces/inkscape"
   width="542.12598"
   height="92.125984"
   id="svg2"
   version="1.1"
   inkscape:version="0.48.0 r9654"
   sodipodi:docname="cabecalho_relatorio.eps"
   inkscape:export-filename="/home/hugo/Desktop/topo_astran.png"
   inkscape:export-xdpi="90"
   inkscape:export-ydpi="90">
  <defs
     id="defs4">
    <metadata
       id="CorelCorpID_2Corel-Layer" />
    <style
       id="style6"
       type="text/css">
   
    .str3 {stroke:#1F1A17;stroke-width:0.0762}
    .str1 {stroke:#009747;stroke-width:0.0762}
    .str2 {stroke:#202326;stroke-width:0.0762}
    .str0 {stroke:#323335;stroke-width:0.0762}
    .fil0 {fill:none}
    .fil5 {fill:#0093CC}
    .fil2 {fill:#323335}
    .fil1 {fill:#35A53C}
    .fil6 {fill:#9A6D37}
    .fil9 {fill:#BCC0C8}
    .fil8 {fill:#C0C2C8}
    .fil11 {fill:#DC6E8E}
    .fil7 {fill:#E0E2E5}
    .fil10 {fill:#EFDD00}
    .fil4 {fill:#F3CD00}
    .fil3 {fill:white}
   
  </style>
    <style
       id="style3339"
       type="text/css">
   
    .fil3 {fill:white}
    .fil0 {fill:#0047BA}
    .fil1 {fill:#00824A}
    .fil2 {fill:#878785}
    .fil4 {fill:#0047BA;fill-rule:nonzero}
    .fil5 {fill:#AB8C0A;fill-rule:nonzero}
   
  </style>
    <marker
       orient="auto"
       markerHeight="3"
       markerWidth="4"
       markerUnits="strokeWidth"
       refY="5"
       refX="10"
       viewBox="0 0 10 10"
       id="ArrowStart">
      <path
         inkscape:connector-curvature="0"
         id="path10"
         d="M 10,0 0,5 10,10 z" />
    </marker>
    <marker
       orient="auto"
       markerHeight="3"
       markerWidth="4"
       markerUnits="strokeWidth"
       refY="5"
       refX="0"
       viewBox="0 0 10 10"
       id="ArrowEnd">
      <path
         inkscape:connector-curvature="0"
         id="path7"
         d="M 0,0 10,5 0,10 z" />
    </marker>
  </defs>
  <sodipodi:namedview
     id="base"
     pagecolor="#ffffff"
     bordercolor="#666666"
     borderopacity="1.0"
     inkscape:pageopacity="0.0"
     inkscape:pageshadow="2"
     inkscape:zoom="1.4"
     inkscape:cx="257.01859"
     inkscape:cy="91.473814"
     inkscape:document-units="px"
     inkscape:current-layer="layer1"
     showgrid="false"
     fit-margin-top="0"
     fit-margin-left="0"
     fit-margin-right="0"
     fit-margin-bottom="0"
     inkscape:window-width="1440"
     inkscape:window-height="823"
     inkscape:window-x="0"
     inkscape:window-y="24"
     inkscape:window-maximized="1"
     units="mm" />
  <metadata
     id="metadata7">
    <rdf:RDF>
      <cc:Work
         rdf:about="">
        <dc:format>image/svg+xml</dc:format>
        <dc:type
           rdf:resource="http://purl.org/dc/dcmitype/StillImage" />
        <dc:title></dc:title>
      </cc:Work>
    </rdf:RDF>
  </metadata>
  <g
     inkscape:label="Camada 1"
     inkscape:groupmode="layer"
     id="layer1"
     transform="translate(-25.831873,-148.01799)">
    <g
       id="g4745"
       transform="matrix(0.7248334,0,0,0.7248334,68.635739,80.067951)"
       style="fill:#454837">
      <text
         sodipodi:linespacing="125%"
         id="text4727"
         y="188.89978"
         x="632.62897"
         style="font-size:40px;font-style:normal;font-weight:normal;line-height:125%;letter-spacing:0px;word-spacing:0px;fill:#000000;fill-opacity:1;stroke:none;font-family:Sans"
         xml:space="preserve"><tspan
           style="font-size:22.07299232000000089px;font-style:normal;font-variant:normal;font-weight:bold;font-stretch:normal;text-align:center;line-height:125%;writing-mode:lr-tb;text-anchor:middle;fill:#000000;font-family:Arial;-inkscape-font-specification:Arial Bold"
           y="188.89978"
           x="632.62897"
           id="tspan4729"
           sodipodi:role="line">Setor de</tspan><tspan
           style="font-size:22.07299232000000089px;font-style:normal;font-variant:normal;font-weight:bold;font-stretch:normal;text-align:center;line-height:125%;writing-mode:lr-tb;text-anchor:middle;fill:#000000;font-family:Arial;-inkscape-font-specification:Arial Bold"
           y="216.49103"
           x="632.62897"
           sodipodi:role="line"
           id="tspan3032">Transporte</tspan></text>
    </g>
    <g
       id="__x0023_Layer_x0020_1"
       transform="matrix(0.23440101,0,0,0.23440101,262.33127,136.22572)">
      <metadata
         id="CorelCorpID_0Corel-Layer-4" />
      <g
         id="_103953424">
        <path
           d="m 66.568,208.716 c 0,-62.1738 36.8841,-112.574 82.3847,-112.574 45.5001,0 82.384,50.3999 82.384,112.574 0,62.1735 -36.8839,112.573 -82.384,112.573 -45.5006,0 -82.3847,-50.4 -82.3847,-112.573 z"
           class="fil0"
           id="_103954000"
           inkscape:connector-curvature="0"
           style="fill:#0047ba" />
        <path
           d="M 217.887,263.408 80.211,263.389 C 74.5728,249.8781 70.9674,234.5587 69.9614,218.232 l 158.183,0 c -1.0064,16.3344 -4.6149,31.6604 -10.2576,45.176 z"
           class="fil1"
           id="_103953928"
           inkscape:connector-curvature="0"
           style="fill:#00824a" />
        <path
           d="m 228.15,218.138 -158.179,0.2452 c -0.1964,-3.1367 -0.3028,-6.3081 -0.3028,-9.5139 0,-9.1223 0.8172,-17.9853 2.3463,-26.4636 l 17.9589,6.5168 c 4.6697,0 6.9253,-6.9253 6.9253,-6.9253 l 16.4032,-31.882 c 8.1297,-17.5168 14.0094,-6.6837 14.0094,-6.6837 0,0 2.9289,-2.8215 6.2348,-4.4355 4.4357,-2.8222 8.121,3.4261 8.121,3.4261 0,0 0.9072,-4.2502 7.7072,-5.1004 1.519,-0.1897 5.0574,-25.4553 5.0574,-25.4553 0,0 0.825,-9.3542 4.389,-11.7408 1.7492,0.2976 3.4799,0.6775 5.1923,1.1301 2.3791,2.5917 2.3677,7.1449 2.3677,7.1449 l 2.939,49.2464 14.4504,0.2767 21.7765,-25.9517 c 14.1459,19.7942 22.8906,46.962 22.8906,76.8973 0,3.1222 -0.1006,6.2119 -0.287,9.2687 z"
           class="fil2"
           id="_103953856"
           inkscape:connector-curvature="0"
           style="fill:#878785" />
        <path
           d="m 150.38,212.894 1.9109,4.7532 -0.6948,0 c -1.7332,-0.0977 -3.4512,-0.0961 -5.1487,0 l -0.5939,0 1.949,-5.1359 c 0.0568,-0.2874 0.2992,-1.3219 1.0527,-2.7738 l 0.124,-0.3269 0.0221,0.0546 c 1.6774,-3.0815 5.6017,-7.8295 14.5982,-11.4041 1.9027,-0.9826 6.2539,-2.6906 16.1417,-5.1281 10.7122,-2.5731 19.5109,-1.1566 19.5109,-1.1566 0,0 0.9047,-3.8499 -0.8364,-5.3941 -0.6953,-0.9461 -3.3477,-1.3673 -3.3477,-1.3673 0,0 -0.6734,-2.8982 -2.3164,-3.241 l -17.4829,-1.996 1.2603,-2.1615 c 0,0 16.1244,1.2661 29.275,-6.6392 l -9.2056,0 c -0.7173,0 -1.2992,-0.5816 -1.2992,-1.299 0,-0.7176 0.5819,-1.299 1.2992,-1.299 l 12.9656,0 c 1.5675,-1.2407 3.0578,-2.6427 4.4314,-4.2312 l -21.043,0 c -0.7176,0 -1.2988,-0.5814 -1.2988,-1.2989 0,-0.7175 0.5812,-1.2989 1.2988,-1.2989 l 0,0 23.0636,0 c 1.0405,-1.4918 1.9865,-3.1194 2.8138,-4.897 l -0.0261,-0.0645 -44.205,0 c -8.4218,-0.3894 -15.116,3.1955 -19.0545,10.7005 l -6.5464,10.7699 -6.381,-10.7728 c -3.9386,-7.5052 -10.632,-11.09 -19.0543,-10.6976 l -44.26,0 -4e-4,0.001 c 0.856,1.85 1.8326,3.5379 2.9052,5.0799 l 23.0757,0 c 0.7175,0 1.2989,0.5814 1.2989,1.299 0,0.7176 -0.5814,1.299 -1.2989,1.299 l -21.0654,0 c 1.3653,1.5899 2.8404,2.9925 4.3875,4.2311 l 13.1089,0 c 0.7174,0 1.2988,0.5815 1.2988,1.2989 0,0.7177 -0.5814,1.299 -1.2988,1.299 l -9.3889,0 c 12.7706,7.7702 28.1326,6.5166 28.1326,6.5166 0,0 1.3872,5.7826 5.5711,12.2809 4.6359,6.5329 9.9875,9.1622 9.9875,9.1622 0,0 -0.0159,0.0176 -0.0388,0.0427 l 1.7984,0.9402 c 0.6364,0.3323 0.8819,1.1172 0.5496,1.7529 -0.3323,0.6361 -1.1172,0.8816 -1.753,0.5493 l -2.3578,-1.2327 c -2.0786,2.4388 -5.1873,6.3368 -4.9672,7.6004 l 11.9077,0 2.2872,8.9379 -73.5185,0 c 0.0512,0.8882 0.1094,1.7737 0.176,2.6558 l 63.423,0 c -15.938,5.7981 -28.0261,20.2943 -29.8585,38.2675 -2.5519,25.0279 15.7333,47.4654 40.7607,50.0172 25.0276,2.5518 47.4652,-15.7334 50.017,-40.761 2.1629,-21.2136 -10.6453,-40.5639 -29.8393,-47.5237 l 63.4035,0 c 0.0666,-0.8821 0.1246,-1.7677 0.176,-2.6558 l -73.4629,0 2.2869,-8.9351 11.9076,0 c 0.2288,-1.3145 -3.144,-5.4791 -5.2124,-7.8864 -11.0157,4.6589 -13.0697,11.0916 -13.3215,12.0683 z m 43.9656,-27.7257 0,0 -1.9423,2.6808 -4.7391,-2.6808 6.6814,0 z"
           class="fil3"
           id="_103953784"
           inkscape:connector-curvature="0"
           style="fill:#ffffff" />
        <path
           d="m 120.694,263.198 c 0,-15.6624 12.6965,-28.359 28.3585,-28.359 l -1.9918,5.8828 -6.2108,0.0769 4.9792,3.7124 -1.8457,5.9304 5.0691,-3.5881 5.0269,3.5583 c -9.2999,2.9248 -22.0721,9.1256 -31.7919,22.176 -1.031,-2.9391 -1.5935,-6.0984 -1.5935,-9.3897 z m 28.3585,-28.359 1.992,5.8828 6.2108,0.0769 -4.9792,3.7124 1.8336,5.8911 c 0.2421,-0.076 0.4826,-0.1506 0.7199,-0.2222 7.8502,-2.3704 14.8675,-2.8254 17.6889,-2.9093 -5.1023,-7.5031 -13.708,-12.4317 -23.466,-12.4317 z m 28.2768,26.1888 c 0.0542,0.7163 0.0822,1.4399 0.0822,2.1702 0,15.6624 -12.6962,28.359 -28.359,28.359 -7.0307,0 -13.4637,-2.5597 -18.4185,-6.7969 l 0.4154,-0.5346 c 15.723,-20.2448 39.0541,-22.8579 45.8302,-23.1766 l 0.4497,-0.0211 z"
           class="fil4"
           id="_103953712"
           inkscape:connector-curvature="0"
           style="fill:#0047ba;fill-rule:nonzero" />
        <path
           d="m 128.559,275.361 c 0.3532,0.3142 0.6436,0.6494 0.8712,1.0056 0.2275,0.3562 0.3669,0.7145 0.4184,1.0749 0.0552,0.39 0.0148,0.7762 -0.1222,1.1582 -0.1393,0.3807 -0.375,0.7586 -0.7083,1.1335 -0.1178,0.133 -0.2541,0.2687 -0.4082,0.4079 -0.1542,0.1392 -0.2593,0.227 -0.3154,0.2639 l -0.8301,-0.738 0.0956,-0.1075 c 0.0744,-0.0303 0.1703,-0.0813 0.2887,-0.1533 0.1192,-0.0734 0.2553,-0.1963 0.4084,-0.3683 0.1245,-0.1402 0.2286,-0.2931 0.3123,-0.4595 0.0821,-0.1682 0.1262,-0.3363 0.133,-0.5037 0.009,-0.1809 -0.0195,-0.3618 -0.0855,-0.5426 -0.0677,-0.1822 -0.181,-0.3648 -0.3397,-0.5474 -0.044,0.2398 -0.1009,0.4496 -0.1693,0.629 -0.0689,0.1771 -0.1919,0.3645 -0.3686,0.5637 -0.1342,0.1509 -0.2813,0.2783 -0.4417,0.3827 -0.1608,0.1009 -0.3324,0.1723 -0.5136,0.2129 -0.2438,0.05 -0.4965,0.0393 -0.7574,-0.032 -0.2615,-0.0751 -0.5308,-0.236 -0.8083,-0.4827 -0.4513,-0.4013 -0.6862,-0.8764 -0.7048,-1.4259 -0.0192,-0.5529 0.1869,-1.0714 0.6177,-1.5562 0.2212,-0.249 0.4522,-0.4385 0.6928,-0.5687 0.2403,-0.133 0.4931,-0.2067 0.7591,-0.2209 0.3077,-0.0189 0.6234,0.0421 0.948,0.1826 0.325,0.1406 0.6671,0.3714 1.0279,0.6918 z m -1.0745,0.8895 0,0 c -0.2303,-0.2043 -0.4385,-0.351 -0.624,-0.4385 -0.1859,-0.0917 -0.3521,-0.1365 -0.4986,-0.1351 -0.1064,-10e-4 -0.2034,0.02 -0.2905,0.0644 -0.0869,0.0448 -0.1642,0.1048 -0.2312,0.1799 -0.062,0.0703 -0.1085,0.1488 -0.1397,0.237 -0.031,0.0848 -0.0419,0.1843 -0.032,0.299 0.0108,0.1092 0.0494,0.2257 0.1157,0.3483 0.0681,0.122 0.17,0.2429 0.3058,0.3635 0.1322,0.1178 0.2604,0.1977 0.3846,0.2408 0.1219,0.0414 0.2391,0.0524 0.3509,0.0327 0.107,-0.0176 0.2082,-0.0589 0.3038,-0.125 0.0974,-0.0676 0.1905,-0.1516 0.2801,-0.2522 0.0717,-0.0806 0.1394,-0.1774 0.2031,-0.2915 0.0619,-0.115 0.1046,-0.2088 0.1282,-0.2808 -0.0209,-0.0185 -0.0495,-0.0454 -0.0855,-0.0809 -0.0367,-0.0386 -0.0935,-0.0927 -0.1707,-0.1616 z m 9.3557,-4.4445 -1.0674,0.9502 -1.0355,-0.6054 -1.4841,1.3213 0.4814,1.0982 -1.0406,0.9264 -2.2729,-5.5311 1.1881,-1.0576 5.231,2.898 z m -3.041,-0.2053 0,0 -1.8376,-1.0735 0.8534,1.9496 0.9842,-0.8761 z m 6.251,-4.3447 c 0.1633,0.2188 0.2666,0.4459 0.3107,0.6812 0.0455,0.2335 0.0378,0.462 -0.0236,0.6842 -0.0696,0.2601 -0.1848,0.4947 -0.346,0.7034 -0.1596,0.2074 -0.3952,0.4272 -0.7066,0.6598 l -1.8748,1.4011 -3.3771,-4.5207 1.6669,-1.2461 c 0.3461,-0.258 0.6081,-0.4344 0.7857,-0.5295 0.1795,-0.0964 0.3791,-0.1619 0.5989,-0.197 0.2286,-0.0348 0.4375,-0.008 0.6265,0.0809 0.1895,0.0855 0.355,0.2222 0.4954,0.4103 0.1633,0.2188 0.2529,0.4531 0.2687,0.7028 0.0145,0.2481 -0.0438,0.4931 -0.1738,0.7356 l 0.0179,0.0241 c 0.3246,-0.1509 0.6375,-0.1953 0.9388,-0.1333 0.3027,0.061 0.5669,0.2418 0.7924,0.5432 z m -2.8071,-0.7978 0,0 c -0.0561,-0.0751 -0.1302,-0.1361 -0.2231,-0.184 -0.0902,-0.0486 -0.1943,-0.0575 -0.3118,-0.0265 -0.105,0.0279 -0.2191,0.0861 -0.3414,0.1743 -0.1221,0.0851 -0.2921,0.2091 -0.5095,0.371 l -0.1037,0.0776 0.7144,0.9563 0.1733,-0.1292 c 0.1746,-0.1305 0.3214,-0.2449 0.4399,-0.3431 0.1189,-0.0982 0.2007,-0.1905 0.2458,-0.2784 0.0653,-0.1209 0.0865,-0.2298 0.0625,-0.3255 -0.0255,-0.0979 -0.074,-0.195 -0.1464,-0.2925 z m 1.6454,1.6371 0,0 c -0.1073,-0.1437 -0.2167,-0.2336 -0.3278,-0.2704 -0.1111,-0.0404 -0.2441,-0.0321 -0.4,0.0241 -0.1063,0.0386 -0.2361,0.1137 -0.3895,0.2246 -0.1535,0.1116 -0.3126,0.2291 -0.478,0.3528 l -0.2423,0.1808 0.8413,1.1262 0.0811,-0.0603 c 0.3111,-0.2325 0.5338,-0.4003 0.6668,-0.5026 0.133,-0.1027 0.2373,-0.2215 0.3128,-0.3569 0.078,-0.1371 0.1066,-0.2625 0.0868,-0.3772 -0.0193,-0.1179 -0.0697,-0.2316 -0.1512,-0.3411 z m 3.1865,-4.8149 c -0.0768,-0.1185 -0.166,-0.2049 -0.2673,-0.2601 -0.1013,-0.0548 -0.2244,-0.0696 -0.3686,-0.0451 -0.1006,0.0169 -0.205,0.0565 -0.3141,0.1181 -0.11,0.0593 -0.2346,0.1344 -0.3736,0.2243 l -0.4194,0.2725 0.8277,1.2744 0.3559,-0.2312 c 0.1851,-0.1202 0.3341,-0.2304 0.4466,-0.3304 0.1122,-0.1002 0.1888,-0.2115 0.2293,-0.3345 0.0377,-0.1178 0.0494,-0.2277 0.0349,-0.3297 -0.0141,-0.1051 -0.0646,-0.2246 -0.1514,-0.3583 z m 3.9409,2.1088 0,0 -1.416,0.9195 -2.353,-0.9395 -0.5341,0.3473 1.1267,1.7349 -1.1532,0.7493 -3.0734,-4.7325 1.9446,-1.2627 c 0.2656,-0.1729 0.504,-0.3052 0.716,-0.3972 0.2121,-0.0923 0.4357,-0.1398 0.6718,-0.1423 0.2377,-0.004 0.461,0.0469 0.6699,0.1523 0.2091,0.102 0.3966,0.2801 0.5616,0.5343 0.2272,0.3497 0.3348,0.6849 0.3228,1.006 -0.01,0.3197 -0.1104,0.6456 -0.3013,0.977 l 2.8176,1.0536 z m 3.1285,-1.5855 -2.7715,1.4738 -0.4699,-0.8833 0.7759,-0.412 -1.71,-3.2157 -0.7755,0.4124 -0.4697,-0.8833 2.7717,-1.4738 0.4699,0.8833 -0.7758,0.4124 1.71,3.2153 0.7752,-0.4124 0.4697,0.8833 z m 4.5421,-2.0426 -3.532,1.5727 -2.2953,-5.1549 1.2632,-0.5622 1.851,4.1579 2.2693,-1.0105 0.4438,0.997 z m 6.3365,-2.1769 -3.4144,1.0714 -0.2952,-0.9402 1.0789,-0.3383 -0.8933,-2.8456 -1.0783,0.3383 -0.2756,-0.8789 c 0.1647,-0.0516 0.3197,-0.1105 0.4647,-0.1777 0.1444,-0.0689 0.2591,-0.1444 0.3439,-0.2267 0.1002,-0.0975 0.165,-0.204 0.1943,-0.3194 0.0293,-0.1147 0.0258,-0.2463 -0.0104,-0.3934 l 1.1369,-0.3573 1.3987,4.4583 1.0546,-0.3307 0.2952,0.9402 z m 5.0705,-2.9291 c 0.1168,0.4865 0.0141,0.9316 -0.3066,1.335 -0.3187,0.4035 -0.821,0.687 -1.5072,0.8506 -0.3852,0.092 -0.7252,0.1289 -1.0208,0.1113 -0.2952,-0.0179 -0.5509,-0.0789 -0.7655,-0.1836 -0.2122,-0.1027 -0.3841,-0.2408 -0.5168,-0.4145 -0.1305,-0.1739 -0.2226,-0.3727 -0.2759,-0.5963 -0.0658,-0.2753 -0.0479,-0.5367 0.0533,-0.7841 0.1031,-0.2508 0.3235,-0.5006 0.6615,-0.7504 l -0.006,-0.022 c -0.3386,-0.0751 -0.606,-0.2074 -0.8016,-0.3969 -0.1961,-0.1898 -0.3291,-0.432 -0.3994,-0.7265 -0.1036,-0.4351 0.003,-0.8372 0.3198,-1.2062 0.3162,-0.369 0.7816,-0.6266 1.3956,-0.7734 0.6445,-0.1536 1.1789,-0.1471 1.6033,0.0189 0.4262,0.163 0.6894,0.4548 0.79,0.8751 0.0623,0.2605 0.0403,0.5109 -0.0652,0.7521 -0.105,0.2404 -0.2997,0.4699 -0.5832,0.6883 l 0.005,0.022 c 0.3989,0.0583 0.7152,0.1892 0.9491,0.3931 0.2339,0.2043 0.3903,0.473 0.4699,0.8075 z m -2.0512,-2.1914 0,0 c -0.0448,-0.1863 -0.1492,-0.3186 -0.3128,-0.3965 -0.1623,-0.0786 -0.3562,-0.0903 -0.5826,-0.0362 -0.084,0.0197 -0.1681,0.0517 -0.2511,0.0948 -0.081,0.0427 -0.153,0.0937 -0.2154,0.1526 -0.0578,0.0579 -0.1005,0.1264 -0.1284,0.206 -0.0286,0.0768 -0.0324,0.1585 -0.0121,0.2443 0.0344,0.145 0.1003,0.2484 0.1964,0.3117 0.0988,0.0621 0.2466,0.1124 0.4434,0.1513 0.0723,0.0141 0.1698,0.0296 0.2924,0.0468 0.1244,0.0148 0.2736,0.03 0.4472,0.0452 0.0762,-0.1578 0.1247,-0.2956 0.1464,-0.4124 0.021,-0.1168 0.0135,-0.2522 -0.0234,-0.4076 z m 0.7286,2.5732 0,0 c -0.042,-0.1771 -0.1164,-0.3011 -0.2218,-0.3717 -0.1058,-0.0714 -0.3036,-0.1341 -0.5933,-0.1899 -0.0858,-0.0186 -0.2087,-0.0372 -0.3686,-0.0565 -0.1599,-0.0186 -0.2945,-0.0358 -0.4045,-0.0513 -0.0778,0.1199 -0.1409,0.2584 -0.1898,0.4155 -0.0469,0.1543 -0.0503,0.3159 -0.01,0.4854 0.061,0.2556 0.1961,0.4392 0.4052,0.5498 0.2108,0.1082 0.4564,0.1289 0.7365,0.0624 0.0748,-0.0179 0.1599,-0.0496 0.2546,-0.0961 0.0948,-0.0483 0.1723,-0.1062 0.2329,-0.1723 0.0703,-0.0765 0.1223,-0.1588 0.1554,-0.2473 0.0334,-0.0886 0.0341,-0.1982 0.003,-0.328 z m 6.1444,-2.8395 c 0.0771,0.4665 0.0923,0.9095 0.0454,1.3291 -0.0468,0.4203 -0.1639,0.7869 -0.3503,1.0994 -0.2019,0.3383 -0.4765,0.6128 -0.8231,0.8244 -0.3472,0.2087 -0.7682,0.3538 -1.263,0.4361 -0.1756,0.029 -0.3665,0.0489 -0.5742,0.0607 -0.2074,0.0113 -0.3445,0.0134 -0.411,0.007 l -0.1819,-1.0952 0.1419,-0.0238 c 0.0772,0.0235 0.184,0.0438 0.3208,0.0624 0.1395,0.0179 0.3224,0.008 0.5498,-0.03 0.1846,-0.0306 0.3617,-0.084 0.5312,-0.1608 0.1695,-0.0793 0.3094,-0.182 0.42,-0.3081 0.1209,-0.1353 0.2129,-0.2938 0.2749,-0.4761 0.0617,-0.1839 0.0885,-0.3972 0.0799,-0.639 -0.1853,0.1588 -0.361,0.2863 -0.5274,0.3834 -0.1644,0.0934 -0.3783,0.1626 -0.6412,0.206 -0.1988,0.0331 -0.3934,0.0397 -0.5839,0.02 -0.1888,-0.0224 -0.3662,-0.0751 -0.5333,-0.1574 -0.2208,-0.1141 -0.4106,-0.2811 -0.5688,-0.5013 -0.1557,-0.2222 -0.2642,-0.5164 -0.3252,-0.883 -0.0989,-0.5956 0.0176,-1.1131 0.3483,-1.552 0.3328,-0.442 0.8189,-0.7159 1.4583,-0.8223 0.329,-0.0544 0.628,-0.0569 0.8964,-0.006 0.2708,0.0472 0.514,0.1488 0.73,0.3052 0.2505,0.1788 0.4579,0.4248 0.6219,0.7383 0.1639,0.3132 0.2856,0.708 0.3645,1.1837 z m -1.395,0.0162 0,0 c -0.0506,-0.3038 -0.1202,-0.5484 -0.2087,-0.7335 -0.0876,-0.1873 -0.1888,-0.3272 -0.3036,-0.4182 -0.0819,-0.0682 -0.1705,-0.113 -0.2662,-0.1323 -0.0962,-0.0199 -0.1937,-0.0217 -0.2929,-0.005 -0.0923,0.0151 -0.1784,0.0472 -0.2577,0.0961 -0.0775,0.0465 -0.1488,0.1171 -0.2132,0.2122 -0.06,0.092 -0.103,0.2067 -0.1289,0.3442 -0.0234,0.1371 -0.0203,0.2952 0.009,0.4744 0.0293,0.1746 0.0782,0.3176 0.1478,0.4289 0.0696,0.1092 0.1537,0.1912 0.2525,0.2463 0.0941,0.0537 0.1992,0.0851 0.3149,0.0937 0.1182,0.009 0.2436,0.002 0.3762,-0.0203 0.1065,-0.0176 0.2202,-0.0503 0.3415,-0.0985 0.1202,-0.0507 0.2121,-0.0969 0.2762,-0.1382 -0.005,-0.0276 -0.01,-0.0661 -0.0158,-0.1164 -0.004,-0.0531 -0.0145,-0.1313 -0.0314,-0.2333 z m 7.2874,2.6848 -4.1961,0.3242 -0.0716,-0.9292 c 0.3014,-0.269 0.6022,-0.5533 0.9019,-0.8526 0.3014,-0.2997 0.5416,-0.5564 0.7204,-0.7703 0.2663,-0.3173 0.4519,-0.5902 0.5574,-0.8186 0.105,-0.2284 0.1491,-0.4499 0.1326,-0.6642 -0.0196,-0.2567 -0.1137,-0.4482 -0.2825,-0.5747 -0.1667,-0.1292 -0.3968,-0.1822 -0.6911,-0.1595 -0.2201,0.0169 -0.4485,0.083 -0.6856,0.1974 -0.2342,0.1144 -0.4495,0.2536 -0.6462,0.4186 l -0.1148,0.009 -0.0968,-1.2506 c 0.164,-0.0913 0.4076,-0.1884 0.7321,-0.2925 0.3266,-0.1033 0.6563,-0.1681 0.9887,-0.194 0.6698,-0.052 1.1924,0.0573 1.5672,0.3273 0.3745,0.2677 0.5826,0.6722 0.6246,1.2137 0.0273,0.3552 -0.0317,0.6994 -0.1764,1.0322 -0.1429,0.3328 -0.3744,0.6825 -0.6952,1.0497 -0.2015,0.2284 -0.4051,0.4406 -0.6111,0.6363 -0.2071,0.1933 -0.3542,0.329 -0.4421,0.4065 l 2.4013,-0.1853 0.0833,1.0766 z m 2.2693,-10.9037 -1.2047,-1.5321 0.8488,-1.3108 -1.6749,-2.1305 -1.4742,0.5161 -1.1744,-1.4935 7.4152,-2.3957 1.3412,1.7057 -4.077,6.6408 z m 0.4155,-4.0301 0,0 1.5055,-2.3265 -2.6162,0.914 1.1107,1.4125 z m -8.0474,-4.1796 c -0.4286,-0.3331 -0.7765,-0.7045 -1.0432,-1.1141 -0.2635,-0.4076 -0.4285,-0.8379 -0.495,-1.2916 -0.0662,-0.4534 -0.0265,-0.9236 0.1195,-1.4108 0.1492,-0.4857 0.4141,-0.9736 0.7955,-1.4648 0.3555,-0.4576 0.7455,-0.8196 1.1717,-1.0856 0.4258,-0.2659 0.8729,-0.4303 1.3408,-0.494 0.4493,-0.0613 0.913,-0.0186 1.3911,0.1292 0.4806,0.1491 0.9409,0.3944 1.3805,0.7358 0.2429,0.1885 0.4503,0.3725 0.6222,0.5513 0.1763,0.1788 0.3304,0.3534 0.462,0.5264 0.1346,0.1836 0.248,0.3607 0.3396,0.5309 0.0958,0.1698 0.1771,0.3217 0.2426,0.4558 l -1.0866,1.3997 -0.1705,-0.1323 c -0.0245,-0.1185 -0.059,-0.2632 -0.1037,-0.4348 -0.0424,-0.1698 -0.1013,-0.35 -0.1768,-0.5412 -0.0782,-0.1929 -0.1777,-0.3821 -0.299,-0.5674 -0.1213,-0.1853 -0.2763,-0.3514 -0.4647,-0.4978 -0.2099,-0.1626 -0.4348,-0.2832 -0.676,-0.3628 -0.2387,-0.0823 -0.4974,-0.1085 -0.7762,-0.0806 -0.267,0.0289 -0.5425,0.1278 -0.8264,0.2966 -0.2822,0.1709 -0.5574,0.4293 -0.8265,0.7752 -0.2811,0.3624 -0.4651,0.7042 -0.553,1.0256 -0.0854,0.3231 -0.105,0.6146 -0.0578,0.8747 0.0472,0.2649 0.1436,0.5033 0.2894,0.7159 0.1481,0.2101 0.3162,0.3879 0.505,0.5347 0.1809,0.1405 0.3803,0.2518 0.5984,0.3338 0.2205,0.0844 0.4417,0.1381 0.6639,0.1616 0.1847,0.023 0.3642,0.0344 0.5395,0.0334 0.1746,-0.001 0.3214,-0.005 0.4392,-0.0135 l 0.1551,0.1206 -1.0718,1.3805 c -0.195,-0.0476 -0.3807,-0.0944 -0.5564,-0.1402 -0.1757,-0.0452 -0.3524,-0.1034 -0.5291,-0.1744 -0.2312,-0.0923 -0.44,-0.1884 -0.6277,-0.2883 -0.1875,-0.0999 -0.4259,-0.2625 -0.7156,-0.4875 z m -4.0676,-3.0027 -3.8203,-1.9321 0.5847,-1.1561 1.069,0.5401 2.1287,-4.2102 -1.0687,-0.5402 0.5847,-1.1569 3.8199,1.9317 -0.5846,1.1565 -1.0691,-0.5405 -2.1287,4.2103 1.069,0.5408 -0.5846,1.1566 z m -5.2724,-2.7547 -5.0967,-1.3488 1.8701,-7.0669 1.822,0.4823 -1.5082,5.6999 3.2745,0.8664 -0.3617,1.3671 z m -6.966,-4.1428 c -0.011,0.3535 -0.0933,0.6667 -0.2463,0.9402 -0.1495,0.2739 -0.3514,0.4982 -0.6056,0.6735 -0.2946,0.2067 -0.6171,0.3504 -0.9664,0.431 -0.3466,0.0806 -0.7848,0.1127 -1.3146,0.0958 l -3.1894,-0.1017 0.2322,-7.3063 2.8362,0.0903 c 0.5888,0.0189 1.0181,0.052 1.2885,0.1002 0.2736,0.0482 0.5423,0.143 0.8069,0.2859 0.2728,0.1495 0.4726,0.3459 0.5997,0.5888 0.1299,0.2398 0.1899,0.5119 0.1802,0.8161 -0.011,0.3532 -0.1147,0.6629 -0.3097,0.9282 -0.1947,0.2625 -0.4647,0.4637 -0.8099,0.6032 l -10e-4,0.0389 c 0.4748,0.1103 0.8461,0.3183 1.1149,0.625 0.2715,0.3066 0.3999,0.7034 0.3844,1.1909 z m -2.3185,-3.0796 0,0 c 0.004,-0.1205 -0.0238,-0.2425 -0.082,-0.3658 -0.0548,-0.123 -0.1585,-0.2164 -0.3101,-0.2801 -0.1357,-0.0568 -0.3069,-0.0899 -0.5126,-0.0999 -0.2026,-0.0128 -0.4889,-0.0252 -0.8585,-0.0372 l -0.1767,-0.006 -0.049,1.5458 0.2942,0.009 c 0.2977,0.009 0.5516,0.0124 0.7611,0.009 0.2098,-0.003 0.3762,-0.031 0.4988,-0.0823 0.1726,-0.07 0.2867,-0.1627 0.3428,-0.2791 0.0561,-0.1192 0.0865,-0.257 0.092,-0.4145 z m 0.3666,2.9883 0,0 c 0.007,-0.2322 -0.0328,-0.412 -0.1206,-0.5391 -0.0841,-0.1302 -0.2333,-0.2302 -0.4472,-0.2994 -0.1457,-0.0469 -0.3479,-0.0761 -0.606,-0.0878 -0.2584,-0.0118 -0.5285,-0.0218 -0.8096,-0.0304 l -0.412,-0.0134 -0.0582,1.8204 0.1374,0.004 c 0.5302,0.0169 0.9095,0.0276 1.1386,0.0314 0.2291,0.004 0.4413,-0.0314 0.637,-0.1075 0.1988,-0.0751 0.3363,-0.1788 0.4127,-0.3111 0.0796,-0.1347 0.122,-0.2904 0.1279,-0.4672 z m -7.2963,-0.3514 c 0.1905,0.883 0.0682,1.6179 -0.3683,2.2042 -0.4357,0.586 -1.1768,0.9922 -2.2228,1.2182 -1.0464,0.2257 -1.8888,0.1612 -2.5276,-0.1933 -0.6362,-0.3548 -1.0486,-0.9722 -1.2387,-1.8521 l -0.985,-4.5633 1.8524,-0.4 0.9621,4.4583 c 0.1073,0.4957 0.2911,0.8427 0.5514,1.0411 0.2604,0.1984 0.624,0.247 1.0912,0.1457 0.4606,-0.0989 0.7715,-0.2883 0.9321,-0.5674 0.164,-0.2797 0.19,-0.6773 0.0792,-1.1923 l -0.962,-4.458 1.8521,-0.4 0.9839,4.5589 z m -9.7574,0.006 c 0.1445,0.2939 0.2346,0.607 0.2703,0.9399 0.0344,0.3297 0.003,0.6366 -0.0939,0.9212 -0.1345,0.3872 -0.3306,0.7262 -0.5888,1.0177 -0.2551,0.289 -0.622,0.5515 -1.1007,0.7868 l -1.053,0.5171 1.0504,2.1374 -1.6918,0.8316 -3.225,-6.5601 2.7843,-1.3688 c 0.4171,-0.2053 0.786,-0.3407 1.1074,-0.4072 0.3225,-0.0716 0.6291,-0.0889 0.9201,-0.0534 0.3496,0.0431 0.66,0.166 0.9307,0.3683 0.2737,0.2012 0.5036,0.4913 0.69,0.8695 z m -1.7294,0.9002 0,0 c -0.091,-0.1853 -0.219,-0.3193 -0.3838,-0.4027 -0.1661,-0.0858 -0.3285,-0.1227 -0.4865,-0.1106 -0.2113,0.0162 -0.4018,0.062 -0.5722,0.1389 -0.1714,0.0733 -0.3969,0.1784 -0.6759,0.3159 l -0.2906,0.1429 0.9658,1.9648 0.4847,-0.2377 c 0.2875,-0.1416 0.5154,-0.2756 0.6834,-0.4017 0.1703,-0.1278 0.2928,-0.2756 0.3672,-0.4434 0.0624,-0.1478 0.0855,-0.2973 0.0688,-0.4496 -0.0152,-0.1567 -0.0684,-0.3287 -0.1609,-0.5168 z m -3.2929,7.3512 -1.4117,1.2351 -3.2222,-3.6839 1.0714,3.2825 -0.9795,0.8564 -3.1111,-1.4982 3.2227,3.6838 -1.3373,1.1696 -4.813,-5.5015 1.6481,-1.4414 3.6524,1.6775 -1.1805,-3.84 1.6478,-1.4414 4.8129,5.5015 z m -7.3077,6.7941 -2.9424,4.3928 -6.0732,-4.069 2.9429,-4.3925 1.1745,0.7868 -1.8991,2.8343 1.0485,0.7025 1.7625,-2.6307 1.1743,0.7869 -1.7624,2.631 1.501,1.0056 1.899,-2.8346 1.1744,0.7869 z m -9.4223,6.5036 c -0.1721,-0.0617 -0.3327,-0.0796 -0.4815,-0.0531 -0.1486,0.0262 -0.2897,0.113 -0.4223,0.2598 -0.0929,0.1027 -0.1721,0.2315 -0.2395,0.389 -0.0699,0.1553 -0.143,0.3397 -0.2198,0.5519 l -0.2315,0.6421 1.8521,0.6674 0.1965,-0.5447 c 0.102,-0.2839 0.1735,-0.5257 0.2148,-0.7266 0.041,-0.2005 0.0357,-0.3834 -0.0162,-0.5484 -0.0511,-0.1575 -0.1235,-0.2846 -0.2177,-0.3811 -0.0959,-0.1006 -0.2404,-0.1857 -0.4349,-0.2563 z m 5.7683,-1.0466 0,0 -0.781,2.1662 -3.1973,0.9661 -0.2947,0.8175 2.5218,0.9092 -0.6361,1.7642 -6.8768,-2.4791 1.0718,-2.9742 c 0.1468,-0.4061 0.2956,-0.7475 0.4474,-1.0235 0.1517,-0.2756 0.3507,-0.514 0.5965,-0.7135 0.2473,-0.2032 0.521,-0.3359 0.8216,-0.3979 0.2992,-0.0661 0.6329,-0.0327 1.0027,0.1003 0.508,0.1833 0.8794,0.4509 1.114,0.8034 0.236,0.3496 0.3813,0.781 0.436,1.2946 l 3.7741,-1.2333 z m -3.3363,20.4904 1.1964,5.1507 -7.1205,1.6537 -1.1963,-5.1504 1.3776,-0.3198 0.7715,3.3232 1.2291,-0.2852 -0.7166,-3.0844 1.3777,-0.3194 0.7161,3.0844 1.7597,-0.409 -0.7719,-3.3234 1.3772,-0.3204 z m -3.5753,9.3772 1.0032,2.0502 5.296,-2.5914 0.8286,1.6932 -5.2959,2.5914 1.0033,2.0509 -1.2701,0.6211 -2.8355,-5.7946 1.2704,-0.6208 z m 10.6033,6.1202 c 0.3426,0.4217 0.5969,0.8623 0.7631,1.3215 0.1643,0.4568 0.2279,0.914 0.1895,1.3708 -0.0381,0.4565 -0.1834,0.9054 -0.4365,1.3467 -0.2549,0.4389 -0.6236,0.8544 -1.1066,1.2465 -0.4497,0.3651 -0.9122,0.629 -1.3875,0.7913 -0.4752,0.1626 -0.9479,0.2215 -1.4178,0.1778 -0.4518,-0.0424 -0.8935,-0.1899 -1.326,-0.4417 -0.4339,-0.2543 -0.8267,-0.5977 -1.1772,-1.0294 -0.1942,-0.2391 -0.3543,-0.4651 -0.4813,-0.6783 -0.1312,-0.214 -0.2413,-0.42 -0.3302,-0.6174 -0.0899,-0.2091 -0.1599,-0.4075 -0.2107,-0.5939 -0.0546,-0.1874 -0.099,-0.3538 -0.1333,-0.4992 l 1.3763,-1.1173 0.1361,0.1678 c -0.003,0.1206 -0.002,0.2698 0.002,0.4472 0.003,0.175 0.0191,0.3638 0.0494,0.5671 0.0323,0.206 0.0862,0.4127 0.1623,0.6204 0.0763,0.2081 0.1899,0.4048 0.3402,0.5909 0.1671,0.2049 0.359,0.3741 0.5757,0.5057 0.2141,0.1343 0.4599,0.2191 0.7376,0.2546 0.2667,0.0327 0.5578,-0.001 0.8728,-0.1013 0.3133,-0.1027 0.6399,-0.2918 0.9803,-0.5681 0.3557,-0.289 0.6129,-0.5798 0.7712,-0.873 0.1564,-0.2956 0.2413,-0.575 0.2547,-0.8389 0.0138,-0.2687 -0.0261,-0.5226 -0.1198,-0.7624 -0.0963,-0.238 -0.2195,-0.4502 -0.3705,-0.6356 -0.1442,-0.1777 -0.3132,-0.3314 -0.507,-0.461 -0.1957,-0.1319 -0.3989,-0.2346 -0.6103,-0.3076 -0.1745,-0.0647 -0.3467,-0.1164 -0.5178,-0.155 -0.1704,-0.0386 -0.314,-0.0675 -0.4308,-0.0865 l -0.1238,-0.1526 1.3571,-1.1014 c 0.1789,0.0906 0.3489,0.1778 0.5098,0.2622 0.1615,0.0844 0.3204,0.1808 0.4762,0.2904 0.204,0.1423 0.3857,0.2832 0.5457,0.423 0.1599,0.1403 0.3554,0.3521 0.5867,0.6367 z m 3.4877,4.1889 4.1704,3.2501 -4.4929,5.7657 -4.1706,-3.2494 0.8694,-1.1155 2.6913,2.097 0.7753,-0.9953 -2.4976,-1.9458 0.8689,-1.1152 2.4981,1.9462 1.1101,-1.4253 -2.6914,-2.097 0.869,-1.1155 z m 5.9411,10.0028 c -0.0741,0.1671 -0.1034,0.3263 -0.0879,0.4765 0.0159,0.1502 0.0922,0.2966 0.2292,0.4396 0.0953,0.0995 0.2188,0.1888 0.3706,0.2666 0.1502,0.081 0.3288,0.1671 0.5349,0.2588 l 0.6238,0.2769 0.7981,-1.7993 -0.5292,-0.235 c -0.2751,-0.1223 -0.5116,-0.2108 -0.709,-0.2663 -0.1975,-0.0555 -0.38,-0.0631 -0.5486,-0.0231 -0.1605,0.04 -0.2925,0.103 -0.3955,0.1898 -0.1071,0.0882 -0.2024,0.2264 -0.2864,0.4155 z m -0.6312,-5.8284 0,0 2.1048,0.934 0.7345,3.258 0.7944,0.3528 1.0873,-2.4502 1.7141,0.7607 -2.9649,6.6818 -2.8899,-1.2823 c -0.3948,-0.1753 -0.7241,-0.3486 -0.9884,-0.5195 -0.2642,-0.1705 -0.4876,-0.3862 -0.6695,-0.646 -0.185,-0.2611 -0.2975,-0.5436 -0.338,-0.8482 -0.0449,-0.3028 0.0126,-0.6332 0.1717,-0.9925 0.2191,-0.4933 0.513,-0.8447 0.8813,-1.0538 0.3655,-0.2102 0.8065,-0.3242 1.3226,-0.3422 l -0.96,-3.8526 z m 19.9513,4.7329 5.2197,-0.8434 1.1661,7.2161 -5.2196,0.8434 -0.2257,-1.3956 3.3683,-0.5444 -0.2012,-1.2457 -3.1261,0.5054 -0.2253,-1.396 3.1261,-0.5054 -0.2884,-1.7831 -3.3679,0.5443 -0.226,-1.3956 z m 11.24,2.8783 c 0.0689,0.1696 0.1633,0.3008 0.2821,0.3938 0.1192,0.0927 0.2777,0.1392 0.4758,0.1396 0.1381,6e-4 0.288,-0.0269 0.4492,-0.0817 0.1626,-0.0523 0.3483,-0.1212 0.5575,-0.206 l 0.6318,-0.2577 -0.7431,-1.8228 -0.5364,0.2184 c -0.2787,0.1137 -0.5064,0.2226 -0.6835,0.3263 -0.1768,0.1037 -0.3087,0.2301 -0.3966,0.3793 -0.0833,0.143 -0.1288,0.2818 -0.1378,0.4165 -0.0106,0.1381 0.0231,0.3031 0.101,0.4943 z m -4.6068,-3.8846 0,0 2.1322,-0.8692 2.857,1.7298 0.8051,-0.328 -1.0122,-2.4822 1.7367,-0.708 2.7592,6.7693 -2.9273,1.1934 c -0.4003,0.1629 -0.7538,0.2804 -1.0601,0.3521 -0.3062,0.072 -0.616,0.0833 -0.9298,0.0348 -0.3159,-0.0483 -0.5981,-0.163 -0.8454,-0.3446 -0.2491,-0.1777 -0.4479,-0.4492 -0.596,-0.8123 -0.204,-0.4999 -0.2533,-0.9553 -0.1485,-1.3653 0.102,-0.4093 0.3252,-0.8062 0.6708,-1.1906 l -3.4417,-1.9792 z m 8.446,-3.7238 4.2678,-3.1209 4.315,5.9 -4.2678,3.1216 -0.8348,-1.1413 2.7544,-2.014 -0.7452,-1.0187 -2.5559,1.8689 -0.8348,-1.1407 2.5563,-1.8696 -1.0666,-1.458 -2.754,2.014 -0.8344,-1.1413 z m 11.1714,-2.867 c 0.1389,0.1195 0.2822,0.1936 0.4306,0.2225 0.1482,0.0286 0.3108,-0.002 0.4875,-0.0913 0.123,-0.0623 0.2439,-0.1547 0.3628,-0.277 0.1209,-0.1202 0.2553,-0.2663 0.4034,-0.4368 l 0.4462,-0.5164 -1.4901,-1.2868 -0.3789,0.4382 c -0.1967,0.2281 -0.3504,0.4279 -0.4606,0.6009 -0.1103,0.1732 -0.1709,0.3455 -0.1816,0.5184 -0.009,0.1654 0.0135,0.3094 0.0665,0.4335 0.0534,0.1281 0.1585,0.2594 0.3142,0.3948 z m -5.7598,-1.0897 0,0 1.5048,-1.7425 3.3317,0.2442 0.5681,-0.658 -2.0285,-1.7522 1.2258,-1.419 5.5318,4.7783 -2.0667,2.3926 c -0.2825,0.327 -0.544,0.5922 -0.7841,0.7952 -0.2405,0.2029 -0.5116,0.3538 -0.8131,0.4526 -0.3031,0.101 -0.6066,0.1265 -0.9095,0.0769 -0.3028,-0.0451 -0.6025,-0.1964 -0.8998,-0.4531 -0.4086,-0.3527 -0.6594,-0.7358 -0.7521,-1.1489 -0.0951,-0.411 -0.0761,-0.8661 0.0569,-1.3656 l -3.9653,-0.2005 z m 5.8335,-7.1417 2.3854,-4.7184 6.5233,3.2983 -2.3857,4.7184 -1.2616,-0.638 1.5396,-3.0451 -1.1259,-0.5692 -1.429,2.826 -1.2616,-0.638 1.4287,-2.826 -1.6123,-0.8151 -1.5393,3.0451 -1.2616,-0.638 z m 3.6701,-6.7059 c -0.0462,-0.3486 -0.0662,-0.7999 -0.0613,-1.3549 0.009,-0.554 0.0768,-1.0915 0.2049,-1.613 0.2974,-1.2075 0.8569,-2.0726 1.6795,-2.5949 0.8262,-0.5212 1.8173,-0.6397 2.9745,-0.3548 1.1024,0.2711 1.9059,0.8344 2.4102,1.6898 0.5075,0.8561 0.6091,1.901 0.3059,3.134 -0.1147,0.4671 -0.2673,0.9016 -0.4571,1.3033 -0.1868,0.4024 -0.4696,0.8309 -0.8479,1.2877 l -1.6636,-0.4096 0.0507,-0.2049 c 0.0885,-0.0724 0.2142,-0.1795 0.3772,-0.3211 0.1657,-0.1416 0.3118,-0.2812 0.4368,-0.419 0.1464,-0.1591 0.2873,-0.3538 0.4214,-0.5836 0.1333,-0.227 0.2339,-0.4785 0.3021,-0.7548 0.0796,-0.3245 0.1044,-0.6301 0.0741,-0.9171 -0.0303,-0.2873 -0.1189,-0.5598 -0.2643,-0.8182 -0.1409,-0.247 -0.3452,-0.4661 -0.6118,-0.6563 -0.2643,-0.1864 -0.5884,-0.3266 -0.9733,-0.4213 -0.7848,-0.1933 -1.4366,-0.133 -1.9557,0.1812 -0.5185,0.3138 -0.8779,0.8775 -1.078,1.6912 -0.0176,0.07 -0.0345,0.1464 -0.0517,0.2301 -0.0179,0.0862 -0.0324,0.1654 -0.0434,0.2371 l 1.3922,0.3424 0.3483,-1.4159 1.3394,0.3293 -0.8054,3.2749 -3.5037,-0.8616 z m 0.2708,-19.8234 -0.708,-1.7367 4.5324,-1.8476 -3.4524,-0.0558 -0.4912,-1.2048 2.4298,-2.4536 -4.5324,1.8476 -0.6707,-1.6457 6.7689,-2.7591 0.8261,2.027 -2.7747,2.9077 4.015,0.134 0.8261,2.0275 -6.7689,2.7595 z"
           class="fil2"
           id="_103953640"
           inkscape:connector-curvature="0"
           style="fill:#878785" />
        <path
           d="m 74.5922,101.439 c -7.0751,8.2533 -13.3405,17.6705 -18.5889,27.9452 l 5.7385,-20.9376 c 0.0801,-0.2925 -0.0653,-0.5994 -0.3423,-0.7229 l -5.3206,-2.3715 c -0.2892,-0.129 -0.6289,-0.0165 -0.7844,0.2594 l -14.5215,25.769 c -0.1551,0.2753 -0.0763,0.6231 0.1828,0.8039 0.2589,0.1814 0.6127,0.1366 0.8181,-0.1033 0,0 10.3346,-12.066 12.356,-14.4262 l -1.4093,18.5607 c -0.8111,1.7985 -1.5924,3.6196 -2.3417,5.4618 -4.4456,10.929 -7.7781,22.6073 -9.9257,34.6587 l -0.3917,-22.61 c -0.0057,-0.303 -0.2312,-0.5566 -0.5316,-0.5976 l -5.7733,-0.7806 c -0.3137,-0.0427 -0.6086,0.1609 -0.6802,0.4696 l -6.6942,28.8109 c -0.0713,0.3077 0.1023,0.6191 0.4014,0.7204 0.2992,0.1013 0.6266,-0.0417 0.756,-0.3295 0,0 6.5271,-14.4832 7.8042,-17.3168 l 3.9825,18.7722 c -1.1533,8.3641 -1.7424,16.8694 -1.7424,25.3938 0,4.66 0.1673,9.2793 0.5003,13.8529 L 32.1801,201.103 c -0.0797,-0.2925 -0.3614,-0.483 -0.6623,-0.4481 l -5.7869,0.6673 c -0.3151,0.0366 -0.5504,0.306 -0.5436,0.6227 l 0.6197,29.5718 c 0.0068,0.3159 0.2521,0.575 0.5666,0.5991 0.315,0.0244 0.597,-0.1943 0.6516,-0.5054 0,0 2.7528,-15.6462 3.2911,-18.7069 l 8.4441,17.1163 c 1.5313,13.5792 4.5538,26.7206 9.0414,39.2845 L 36.406,250.248 c -0.1557,-0.2604 -0.4776,-0.3679 -0.7585,-0.2539 l -5.3944,2.1997 c -0.2935,0.1196 -0.4477,0.4427 -0.3559,0.7459 l 8.5513,28.3162 c 0.0915,0.3025 0.3972,0.4861 0.7071,0.4248 0.2895,-0.0575 0.4945,-0.3118 0.4945,-0.6015 0,-0.0203 -0.001,-0.0406 -0.0032,-0.061 0,0 -1.5574,-15.8105 -1.862,-18.9028 l 12.6767,14.1456 c 5.0687,12.4018 11.5752,23.8773 19.1968,33.9209 L 53.2963,296.1164 c -0.2301,-0.1978 -0.5698,-0.1978 -0.7998,-4e-4 l -4.4221,3.792 c -0.2403,0.206 -0.2844,0.5612 -0.1016,0.82 l 17.0679,24.1573 c 0.1818,0.2584 0.5301,0.3359 0.8045,0.1795 0.1976,-0.1123 0.3104,-0.319 0.3104,-0.5336 0,-0.0838 -0.0172,-0.1688 -0.0535,-0.2498 0,0 -6.4776,-14.5066 -7.7449,-17.3437 l 16.0628,9.162 c 2.1863,2.5617 4.4492,5.0112 6.7835,7.337 1.2421,1.2374 3.2522,1.2336 4.4901,-0.008 1.2375,-1.2423 1.2341,-3.2525 -0.0084,-4.4904 -2.449,-2.4399 -4.8166,-5.0244 -7.095,-7.7394 l -1.4059,-15.0805 c 2.0662,2.394 12.3408,14.2961 12.3408,14.2961 0.2074,0.2401 0.5638,0.2829 0.8217,0.0982 0.2582,-0.1843 0.3329,-0.5351 0.1727,-0.8089 l 0,0 -14.9598,-25.5916 c -0.1531,-0.2614 -0.4735,-0.3724 -0.7553,-0.2611 l -5.4533,2.1507 c -0.2979,0.1176 -0.4557,0.4452 -0.3612,0.7518 l 6.2437,20.2678 c -7.9144,-10.287 -14.6063,-22.2029 -19.6858,-35.139 l 3.0305,-15.8384 c 1.3434,2.7795 8.4016,17.3816 8.4016,17.3816 0.1375,0.2845 0.4684,0.4182 0.7652,0.309 0.2962,-0.1096 0.4612,-0.4261 0.3813,-0.7317 l 0,0 -7.5227,-28.6732 c -0.077,-0.2928 -0.3555,-0.4861 -0.6568,-0.4548 l -5.8308,0.6033 c -0.3147,0.0323 -0.5528,0.299 -0.5504,0.6153 l 0.1786,21.9697 c -4.4773,-12.5633 -7.4354,-25.733 -8.8465,-39.3587 l 7.1204,-14.904 c 0.5941,3.0293 3.7143,18.9443 3.7143,18.9443 0.0607,0.31 0.3471,0.5233 0.6615,0.4923 0.3147,-0.03 0.5546,-0.2946 0.5546,-0.6105 l 0.0018,-29.6439 c 0,-0.303 -0.2205,-0.5605 -0.5201,-0.6064 l 0,0 -5.7922,-0.896 c -0.313,-0.0484 -0.611,0.1488 -0.689,0.4554 l -5.5041,21.691 c -0.3398,-4.5402 -0.5111,-9.1278 -0.5111,-13.7581 0,-8.8428 0.6539,-17.5835 1.9153,-26.1181 l 10.3596,-12.6784 c -0.1414,3.0841 -0.8837,19.285 -0.8837,19.285 -3e-4,0.01 -6e-4,0.0191 -6e-4,0.0286 0,0.3038 0.2232,0.5634 0.5262,0.6072 0.313,0.0448 0.6089,-0.1549 0.6837,-0.4622 l 7.0309,-28.7972 c 0.072,-0.2942 -0.0815,-0.5969 -0.3612,-0.7126 l 0,0 -5.4152,-2.2443 c -0.2925,-0.1211 -0.6294,0 -0.7772,0.2794 l -10.3,19.4086 c 2.5536,-14.2595 6.8209,-27.8683 12.601,-40.3207 l 13.6432,-8.7555 c -1.0902,2.8882 -6.8171,18.0611 -6.8171,18.0611 -0.0269,0.0709 -0.0395,0.1443 -0.0395,0.2166 0,0.2276 0.1273,0.4445 0.3425,0.5508 0.2837,0.1397 0.627,0.0408 0.793,-0.2276 l 15.6094,-25.2011 c 0.1595,-0.2571 0.1073,-0.5927 -0.1228,-0.7894 l 0,0 -4.4526,-3.8111 c -0.2403,-0.206 -0.5977,-0.1952 -0.8256,0.0243 l -15.9147,15.3636 c 5.0453,-9.9726 11.0913,-19.1259 18.0279,-27.1803 l 22.5392,-19.3516 c 0.1197,-0.1034 0.1409,-0.2804 0.0494,-0.4091 -0.0909,-0.1292 -0.2656,-0.1676 -0.4025,-0.0893 0,0 -6.6682,3.8012 -11.7909,6.7218 L 104.786,73.2376 c 0.0987,-0.127 0.0829,-0.3087 -0.036,-0.4167 -0.1197,-0.1078 -0.3019,-0.1054 -0.4184,0.0053 L 86.9894,89.3549 c 2.365,-5.3509 5.3869,-12.1877 5.3869,-12.1877 0.0639,-0.144 0.0074,-0.3133 -0.1292,-0.391 -0.1375,-0.0779 -0.3114,-0.0395 -0.4024,0.0898 l -17.2884,24.5433 0.0359,0.0297 z m 136.092,216.465 c 1.105,-1.0088 2.6754,-1.1864 3.9435,-0.5678 -2.604,-2.319 -4.4474,-5.6663 -4.9436,-9.5466 -0.5622,-4.3956 0.7218,-8.5649 3.206,-11.5952 3.1269,2.2855 5.3967,5.9413 5.9863,10.2719 0.2888,-0.4655 0.605,-0.9216 0.9484,-1.3656 2.1942,-2.8378 5.1384,-4.7151 8.2491,-5.5321 -0.6602,-1.0691 -0.7295,-2.4567 -0.0619,-3.6243 0.5944,-1.0394 1.6353,-1.663 2.743,-1.7684 -0.1707,-0.3655 -0.2784,-0.7578 -0.3177,-1.1593 -1.0079,0.4701 -2.2205,0.4596 -3.2593,-0.1346 -1.6985,-0.9719 -2.2883,-3.1365 -1.3168,-4.8356 0.9716,-1.6988 3.1361,-2.2882 4.8353,-1.3163 1.0361,0.5926 1.6592,1.6295 1.7673,2.7336 0.3528,-0.1644 0.7309,-0.2704 1.1177,-0.3127 -0.4488,-0.9987 -0.4301,-2.1913 0.1549,-3.2147 0.712,-1.2447 2.0647,-1.8935 3.4056,-1.7691 -3.045,-1.5214 -5.6522,-4.1747 -7.1718,-7.6708 -1.7666,-4.0638 -1.6974,-8.426 -0.1571,-12.0289 3.6405,1.3216 6.8401,4.1988 8.6152,8.1929 0.1473,-0.5276 0.3234,-1.0537 0.5291,-1.5759 1.3754,-3.4904 3.8316,-6.2013 6.7596,-7.8358 -1.1353,-0.8385 -1.704,-2.3143 -1.3201,-3.7611 0.3071,-1.1576 1.1525,-2.0281 2.1958,-2.4149 -0.2589,-0.3094 -0.4638,-0.6608 -0.6051,-1.0387 -0.8531,0.7135 -2.0274,1.0154 -3.1841,0.7082 -1.8917,-0.5019 -3.0182,-2.4422 -2.5163,-4.3339 0.502,-1.8917 2.4423,-3.0179 4.334,-2.516 1.1536,0.3064 2.0224,1.1481 2.411,2.1871 0.2985,-0.2495 0.6366,-0.449 0.9994,-0.5893 -0.6905,-0.8497 -0.9788,-2.0069 -0.6767,-3.1463 0.4033,-1.5198 1.7352,-2.5451 3.2246,-2.6292 -3.4327,-0.6934 -6.7245,-2.6698 -9.1096,-5.7934 -2.6892,-3.5226 -3.6673,-7.7739 -3.0358,-11.6413 3.8509,0.4106 7.6471,2.4372 10.3276,5.8891 0.0166,-0.5474 0.0617,-1.1003 0.1362,-1.6565 0.4876,-3.6355 2.1565,-6.7947 4.521,-9.073 -1.1441,-0.6088 -1.911,-1.8255 -1.8803,-3.2094 0.0267,-1.1975 0.6439,-2.2422 1.5674,-2.8631 -0.3244,-0.2399 -0.6063,-0.5333 -0.8323,-0.8675 -0.6617,0.8938 -1.7322,1.4631 -2.9286,1.4361 -1.9568,-0.0441 -3.5071,-1.665 -3.4637,-3.6221 0.0438,-1.9562 1.6653,-3.5075 3.6222,-3.4634 1.1932,0.0269 2.2354,0.6411 2.8571,1.5599 0.2316,-0.3126 0.5134,-0.5858 0.8331,-0.8074 -0.8708,-0.6639 -1.423,-1.721 -1.3968,-2.8995 0.0341,-1.5243 1.0259,-2.8017 2.3881,-3.2711 -3.4415,0.0453 -7.0145,-1.1459 -9.9832,-3.61 -3.4096,-2.8307 -5.3151,-6.7545 -5.5655,-10.6655 3.8446,-0.4619 7.9983,0.6624 11.3837,3.426 -0.1063,-0.5371 -0.1863,-1.0858 -0.2382,-1.6444 -0.3314,-3.5727 0.5409,-6.9551 2.2586,-9.6749 -1.2468,-0.353 -2.2535,-1.3797 -2.5159,-2.7386 -0.2277,-1.1758 0.1542,-2.3275 0.9252,-3.1298 -0.3677,-0.1658 -0.7053,-0.393 -0.9969,-0.6717 -0.4575,1.0135 -1.3832,1.7965 -2.5583,2.0235 -1.9213,0.3713 -3.7796,-0.8853 -4.1517,-2.8068 -0.3714,-1.9216 0.8854,-3.7804 2.8067,-4.1514 1.1719,-0.2261 2.3203,0.1534 3.1224,0.9196 0.1602,-0.3547 0.3779,-0.6815 0.6435,-0.9658 -0.9915,-0.4646 -1.7547,-1.3808 -1.9786,-2.5384 -0.2566,-1.3274 0.2641,-2.6248 1.2446,-3.4224 -3.2722,0.7239 -6.9065,0.3317 -10.2528,-1.3594 -3.9546,-1.9995 -6.6873,-5.4003 -7.8028,-9.1567 3.6451,-1.3075 7.9445,-1.137 11.8608,0.8022 -0.2234,-0.4998 -0.4237,-1.0169 -0.5988,-1.5498 -1.188,-3.6181 -1.0068,-7.3294 0.2528,-10.488 -1.4546,0.1466 -2.9076,-0.6232 -3.5638,-2.0215 -0.5087,-1.084 -0.4209,-2.2944 0.1299,-3.2613 -0.3972,-0.0705 -0.7804,-0.208 -1.1315,-0.4066 -0.1949,1.0947 -0.9002,2.0809 -1.9836,2.5891 -1.7722,0.8315 -3.8816,0.0692 -4.7136,-1.7027 -0.8313,-1.7718 -0.0689,-3.8821 1.7029,-4.7129 1.0807,-0.507 2.287,-0.4208 3.2525,0.1254 0.0683,-0.383 0.1993,-0.753 0.387,-1.0937 -1.0753,-0.2072 -2.0399,-0.9082 -2.5409,-1.9755 -0.6418,-1.368 -0.333,-2.9381 0.6575,-3.9653 -2.9563,1.6422 -6.5908,2.2979 -10.3113,1.5998 -4.3553,-0.8177 -7.9272,-3.3221 -10.0459,-6.6185 3.1363,-2.272 7.3131,-3.3069 11.6147,-2.5357 -0.3539,-0.4178 -0.6904,-0.8585 -1.0072,-1.3216 -2.1214,-3.1024 -2.987,-6.6636 -2.6929,-10.0097 -1.3257,0.4889 -2.8729,0.1522 -3.8708,-0.9658 -0.7976,-0.8932 -1.0596,-2.0781 -0.8084,-3.1622 -0.4007,0.0459 -0.8072,0.0237 -1.2003,-0.0663 0.1263,1.105 -0.2676,2.2516 -1.1604,3.0486 -1.4604,1.3031 -3.6997,1.1762 -5.0033,-0.2844 -1.3033,-1.4598 -1.1762,-3.6998 0.2839,-5.0028 0.8905,-0.7946 2.0712,-1.0572 3.1526,-0.8099 -0.0442,-0.3866 -0.0244,-0.7786 0.0581,-1.1588 -1.0896,0.1089 -2.2142,-0.2871 -2.9992,-1.1663 -0.7856,-0.8797 -1.0506,-2.0427 -0.8181,-3.1136 -2.2852,2.3918 -5.4685,4.0801 -9.1331,4.5678 -4.3931,0.583 -8.5683,-0.6799 -11.611,-3.1497 2.2694,-3.1375 5.9143,-5.4254 10.2414,-6.037 -0.4666,-0.2863 -0.924,-0.5997 -1.3695,-0.9406 -3.5189,-2.6942 -5.5787,-6.5394 -5.9835,-10.4374 3.863,-0.6204 8.1043,0.3642 11.6172,3.0534 0.4504,0.3448 0.8769,0.7088 1.2791,1.0891 -0.515,-4.3135 0.7466,-8.4034 3.1761,-11.3958 3.1698,2.2927 5.4726,5.9879 6.0554,10.3734 0.5091,3.8367 -0.3893,7.5067 -2.2697,10.4013 1.3736,-0.6208 3.0466,-0.3135 4.1032,0.8703 0.7851,0.8797 1.0506,2.0428 0.8186,3.1132 0.3638,-0.0364 0.7311,-0.0162 1.0888,0.0591 -0.0996,-1.0808 0.2974,-2.1933 1.1691,-2.9713 1.4601,-1.3034 3.7,-1.1761 5.0037,0.2841 1.3036,1.4597 1.1754,3.6995 -0.2846,5.0031 -0.874,0.7802 -2.0283,1.0474 -3.0935,0.8229 0.0348,0.3783 0.009,0.7601 -0.0764,1.1304 1.1055,-0.1268 2.2538,0.2674 3.0514,1.1609 1.0734,1.2028 1.1757,2.9355 0.3614,4.2373 3.3087,0.9067 6.403,3.0289 8.5728,6.2023 0.3202,0.4683 0.6114,0.9473 0.8747,1.4342 0.8585,-4.2587 3.3345,-7.7501 6.5773,-9.8336 2.2952,3.168 3.328,7.3977 2.5115,11.7457 -0.792,4.2182 -3.1653,7.7012 -6.3079,9.8411 1.6469,-0.4792 3.4435,0.2971 4.195,1.8983 0.5007,1.0676 0.4225,2.258 -0.1059,3.2174 0.359,0.0691 0.7054,0.1936 1.0267,0.3681 0.2136,-1.0642 0.9117,-2.0167 1.9697,-2.5131 1.7725,-0.8318 3.8819,-0.0687 4.7136,1.7029 0.8312,1.7717 0.0685,3.8813 -1.7029,4.7127 -1.0607,0.4977 -2.243,0.4239 -3.1994,-0.0955 -0.0749,0.3725 -0.2089,0.7311 -0.397,1.0614 1.0956,0.1946 2.0832,0.9004 2.5924,1.9847 0.6914,1.4743 0.2787,3.1835 -0.9007,4.1945 2.9753,1.7872 5.4001,4.7147 6.6148,8.4128 0.177,0.5391 0.3232,1.0804 0.4404,1.6216 2.0113,-3.8503 5.3625,-6.5134 9.057,-7.6107 1.3212,3.6823 1.1341,8.0324 -0.8616,11.9807 -1.7967,3.5531 -4.724,6.1197 -8.0242,7.4137 1.4968,0.1709 2.7754,1.2913 3.0767,2.8487 0.2234,1.1578 -0.1444,2.2928 -0.892,3.0933 0.331,0.155 0.6363,0.3607 0.9049,0.6085 0.4682,-0.9792 1.3786,-1.7316 2.5258,-1.9534 1.922,-0.3716 3.7803,0.8854 4.1524,2.8069 0.3713,1.9213 -0.8858,3.7798 -2.8071,4.1511 -1.1505,0.2223 -2.2786,-0.139 -3.0783,-0.8772 -0.1639,0.3427 -0.3817,0.6575 -0.6451,0.9316 1.0145,0.4573 1.7989,1.3837 2.0263,2.5598 0.284,1.4702 -0.3856,2.9041 -1.577,3.6625 2.2558,2.3701 3.7848,5.5841 4.1223,9.2223 0.0524,0.5652 0.0744,1.1257 0.068,1.6795 2.8192,-3.3059 6.6792,-5.1549 10.526,-5.4009 0.4668,3.884 -0.6845,8.0831 -3.5105,11.4872 -2.6602,3.2043 -6.2857,5.0802 -9.9581,5.5026 1.5954,0.3748 2.767,1.8243 2.7289,3.5283 -0.0264,1.179 -0.6258,2.2105 -1.5258,2.8346 0.2906,0.2215 0.5455,0.4871 0.7555,0.786 0.6647,-0.8578 1.7137,-1.4003 2.8821,-1.3741 1.9568,0.0434 3.5071,1.6653 3.464,3.6218 -0.0434,1.9562 -1.6656,3.5064 -3.6225,3.463 -1.171,-0.0264 -2.1968,-0.618 -2.8223,-1.5086 -0.2327,0.3003 -0.5122,0.5617 -0.8277,0.7738 0.8947,0.6617 1.4652,1.733 1.4386,2.9304 -0.0356,1.5797 -1.1005,2.8952 -2.5396,3.3196 1.7144,2.8349 2.5123,6.3542 2.0198,10.0243 -0.0754,0.5624 -0.1796,1.1134 -0.3097,1.6515 3.4879,-2.5902 7.664,-3.5278 11.468,-2.9059 -0.4148,3.8899 -2.4778,7.7243 -5.9938,10.409 -3.3512,2.5584 -7.3625,3.5681 -11.0742,3.1165 1.5801,0.6864 2.4653,2.4423 2.0102,4.1582 -0.3027,1.1396 -1.1277,2.0016 -2.1492,2.3969 0.2305,0.2836 0.4158,0.6017 0.5499,0.9417 0.8476,-0.6778 1.9948,-0.959 3.1244,-0.659 1.892,0.5016 3.0182,2.4422 2.516,4.3336 -0.5017,1.8917 -2.4419,3.0179 -4.3336,2.5156 -1.1322,-0.3005 -1.9907,-1.1164 -2.3894,-2.1289 -0.2968,0.2372 -0.6299,0.4254 -0.9864,0.5575 0.7144,0.8533 1.0172,2.0286 0.7103,3.1861 -0.4109,1.547 -1.7842,2.5826 -3.3058,2.6334 1.0921,3.2386 1.0658,6.975 -0.3377,10.5372 -0.208,0.5278 -0.4411,1.0376 -0.6965,1.5288 4.0071,-1.6786 8.2856,-1.5873 11.8296,-0.0722 -1.335,3.6773 -4.2567,6.9053 -8.314,8.6689 -3.7673,1.6373 -7.7908,1.6979 -11.2281,0.471 1.2053,1.0924 1.5347,2.9115 0.694,4.3824 -0.5854,1.0234 -1.6044,1.6443 -2.6932,1.7636 0.1498,0.3333 0.2471,0.6885 0.2892,1.0515 0.9934,-0.4369 2.1743,-0.4137 3.1888,0.1663 1.6988,0.9719 2.2882,3.1368 1.3167,4.8355 -0.9712,1.6988 -3.1357,2.2876 -4.8348,1.3164 -1.0169,-0.5816 -1.6365,-1.5908 -1.7615,-2.6719 -0.3478,0.153 -0.7182,0.2493 -1.0966,0.2853 0.471,1.0083 0.4615,2.2217 -0.133,3.2613 -0.7653,1.3377 -2.2714,1.988 -3.7064,1.7288 0.0377,3.279 -1.0367,6.6811 -3.2775,9.5787 -0.347,0.4487 -0.7132,0.8733 -1.0954,1.2736 4.3168,-0.4935 8.3994,0.7884 11.3801,3.2322 -2.3086,3.1589 -6.0155,5.443 -10.4035,6.0042 -4.1656,0.5325 -8.1283,-0.593 -11.1104,-2.8268 1.0365,1.4394 0.8536,3.459 -0.4879,4.684 -0.8709,0.7951 -2.0309,1.0738 -3.104,0.8539 0.0406,0.3633 0.0245,0.7309 -0.0467,1.0895 1.0794,-0.1117 2.1965,0.2723 2.9847,1.1352 1.3198,1.4455 1.2178,3.6866 -0.2271,5.0064 -1.4448,1.3194 -3.6862,1.2178 -5.0057,-0.2274 -0.79,-0.8651 -1.0701,-2.016 -0.8579,-3.0834 -0.3778,0.039 -0.7602,0.0178 -1.1314,-0.0638 0.1395,1.104 -0.2419,2.2566 -1.1261,3.0638 -1.4448,1.3198 -3.6862,1.2182 -5.0054,-0.227 -1.3201,-1.4452 -1.2185,-3.6866 0.2267,-5.0064 0.8841,-0.8075 2.0665,-1.083 3.1533,-0.8441 -0.0505,-0.4001 -0.0323,-0.8068 0.053,-1.2008 -1.1035,0.1389 -2.2554,-0.2418 -3.0623,-1.1256 -1.3198,-1.4456 -1.2181,-3.6866 0.227,-5.0064 1.4453,-1.3199 3.6863,-1.2182 5.0058,0.2273 0.8053,0.8813 1.0816,2.0587 0.8465,3.1429 0.3863,-0.0485 0.7782,-0.0332 1.1594,0.045 -0.1214,-1.0883 0.2612,-2.2175 1.1315,-3.0129 z"
           class="fil1"
           id="_103953568"
           inkscape:connector-curvature="0"
           style="fill:#00824a" />
        <path
           d="m 233.428,328.898 c -9.1935,5.6968 -20.0359,8.9865 -31.6473,8.9865 -11.6189,0 -22.4686,-3.2942 -31.6659,-8.9993 l -7.0007,11.3371 -20.2632,-12.5539 c 0,0 -3.7373,6.0477 -7.0858,11.459 -11.815,-6.5271 -25.4011,-10.2422 -39.8538,-10.2422 -15.9332,0 -30.8115,4.5145 -43.4259,12.3338 0,0 9.0012,14.5766 11.7591,19.0428 9.1977,-5.7051 20.0474,-8.9993 31.6668,-8.9993 11.6104,0 22.4533,3.2901 31.6467,8.9869 l 7.0373,-11.3702 20.031,12.3982 c 1.1847,-1.9013 4.4068,-6.9225 7.2252,-11.3022 11.8329,6.538 25.4452,10.1867 39.9292,10.1867 15.9329,0 30.8112,-4.4142 43.4255,-12.2336 0,0 -9.5127,-15.3696 -11.7782,-19.0303 z M 162.2775,90.855 149.1028,81.5303 135.929,90.855 l 4.7968,-15.4111 -12.9393,-9.6482 16.1396,-0.1999 5.1771,-15.2877 5.1772,15.2877 16.1396,0.2003 -12.9398,9.6478 4.7973,15.4111 z m -13.2247,2.5601 c -46.9641,0 -85.1726,51.7923 -85.1726,115.454 0,63.6612 38.2085,115.453 85.1726,115.453 46.9646,0 85.1728,-51.7922 85.1728,-115.453 0,-63.6613 -38.2082,-115.454 -85.1728,-115.454 z m 0,225.027 0,0 c -43.7724,0 -79.3843,-49.1546 -79.3843,-109.574 0,-60.4193 35.6119,-109.574 79.3843,-109.574 43.7727,0 79.3847,49.1546 79.3847,109.574 0,60.4191 -35.612,109.574 -79.3847,109.574 z"
           class="fil5"
           id="_103953496"
           inkscape:connector-curvature="0"
           style="fill:#ab8c0a;fill-rule:nonzero" />
        <path
           d="m 173.061,339.449 0.8768,0.4 c 1.18,0.5381 0.5802,1.8528 -0.1013,3.3469 -0.9277,2.0333 -1.4834,2.7168 -2.5173,2.2452 l -0.8199,-0.3741 2.5617,-5.618 z m -4.8272,6.0913 0,0 2.764,1.2606 c 2.8997,1.3222 4.0097,-1.6186 4.5781,-2.866 1.1531,-2.528 1.4143,-4.2003 -0.8109,-5.2155 l -2.8312,-1.2912 -3.7,8.1121 z m 12.7282,4.954 0.4124,-1.3074 -2.9559,-0.9326 0.7841,-2.4852 2.6379,0.8327 0.4127,-1.3068 -2.6375,-0.833 0.6614,-2.096 2.8612,0.9033 0.4127,-1.3074 -4.6399,-1.4645 -2.6833,8.5025 4.7342,1.4944 z m 9.801,-6.9143 -1.0894,6.8789 c -0.0599,0.3782 -0.4127,0.7103 -0.8271,0.6445 -0.9636,-0.1526 -0.6391,-1.1765 -0.5268,-1.8841 l -1.8786,-0.2976 c -0.3166,2.0005 -0.3769,3.0909 2.1966,3.4988 1.305,0.2067 2.6534,-0.2549 2.897,-1.7914 l 1.07,-6.7572 -1.8417,-0.2919 z m 3.5743,9.4789 0.6428,-1.9355 2.5383,0.1771 0.3545,2.0057 1.9586,0.1371 -1.7925,-9.063 -2.4515,-0.1715 -3.0858,8.7219 1.8356,0.1282 z m 2.8821,-3.153 0,0 -1.7742,-0.124 1.119,-3.7841 0.0248,0.002 0.6304,3.9064 z m 6.371,3.4241 -0.2942,-6.5133 0.0248,-0.001 2.7244,6.4041 2.4546,-0.1113 -0.402,-8.9065 -1.7394,0.0781 0.2787,6.1685 -0.0248,10e-4 -2.6473,-6.0613 -2.5166,0.1137 0.4024,8.9066 1.7394,-0.0782 z m 12.4413,-1.2654 -0.2129,-1.3536 -3.062,0.4817 -0.4055,-2.5739 2.733,-0.4303 -0.2136,-1.3539 -2.7323,0.43 -0.3421,-2.1711 2.9642,-0.4668 -0.2133,-1.3543 -4.8062,0.7569 1.387,8.8077 4.9037,-0.7724 z m 3.4816,-0.7224 -1.8538,-8.7216 -1.8242,0.3879 1.8542,8.7209 1.8238,-0.3872 z m 1.8628,-8.3764 0.7927,-0.2377 c 0.5674,-0.1702 1.0025,0.0344 1.2475,0.8502 0.1636,0.5443 0.175,1.3143 -0.5344,1.5273 l -0.7923,0.238 -0.7135,-2.3778 z m 1.1072,3.6904 0,0 0.4614,-0.1378 c 1.3721,-0.4117 1.5361,0.4799 1.8417,1.4965 0.1664,0.5564 0.2935,1.15 0.6859,1.5992 l 1.7505,-0.525 c -0.2719,-0.3052 -0.7903,-1.9031 -0.953,-2.4474 -0.4616,-1.5376 -1.6491,-1.2843 -2.0539,-1.2144 l -0.007,-0.0238 c 1.1027,-0.5371 1.2833,-1.4807 0.957,-2.569 -0.4368,-1.4548 -1.4514,-2.0012 -2.67,-1.636 l -3.2997,0.9908 2.5625,8.5397 1.7859,-0.5361 -1.0611,-3.5367 z m 9.0885,-0.5089 c -0.966,0.41 -1.4772,-0.4461 -2.3695,-2.5493 -0.893,-2.1029 -1.1534,-3.0655 -0.1878,-3.4754 0.9664,-0.41 1.4777,0.4461 2.3706,2.5493 0.8923,2.1029 1.1535,3.0655 0.1867,3.4754 z m 0.5213,1.2275 0,0 c 2.8305,-1.2013 1.9427,-3.2928 1.0307,-5.4412 -0.9215,-2.1714 -1.7997,-4.2398 -4.6305,-3.0385 -2.8301,1.2013 -1.952,3.27 -1.0304,5.4415 0.9119,2.1483 1.7997,4.2395 4.6302,3.0382 z m -87.6297,-9.1433 0.6988,0.4431 c 0.5006,0.3173 0.6312,0.7799 0.175,1.5 -0.304,0.4795 -0.878,0.9929 -1.5036,0.596 l -0.6988,-0.4431 1.3286,-2.096 z m -2.0622,3.2539 0,0 0.4067,0.2577 c 1.2095,0.7676 0.6437,1.4755 0.0751,2.3727 -0.3104,0.4902 -0.6763,0.9746 -0.7585,1.5658 l 1.5437,0.9787 c 0.0519,-0.4052 0.9197,-1.8435 1.2241,-2.3234 0.859,-1.3563 -0.1099,-2.0874 -0.4279,-2.3471 l 0.0135,-0.021 c 1.1276,0.4809 1.959,0 2.5671,-0.9605 0.8132,-1.2823 0.5617,-2.4068 -0.5125,-3.0882 l -2.9097,-1.8452 -4.7729,7.5303 1.5746,0.9987 1.9767,-3.1185 z m 4.4748,7.2089 4.7737,-7.5299 -1.575,-0.9984 -4.7734,7.5299 1.5747,0.9984 z m 5.1055,1.8335 c -0.8864,-0.5623 -0.4723,-1.4694 0.7507,-3.3986 1.223,-1.93 1.8662,-2.6917 2.7533,-2.1294 0.8861,0.5626 0.4717,1.4693 -0.7513,3.3992 -1.2227,1.9293 -1.8662,2.691 -2.7527,2.1288 z m -0.7138,1.1255 0,0 c 2.5969,1.6474 3.8134,-0.2715 5.0619,-2.2424 1.263,-1.9923 2.466,-3.8906 -0.1309,-5.5373 -2.5966,-1.6468 -3.7993,0.2518 -5.0622,2.2441 -1.2492,1.9709 -2.4667,3.8899 0.1312,5.5356 z m -79.8286,-2.4254 -0.5952,-1.2347 -2.7922,1.3457 -1.131,-2.3475 2.492,-1.2006 -0.595,-1.2351 -2.4922,1.201 -0.9541,-1.9799 2.7032,-1.303 -0.5951,-1.235 -4.3832,2.1121 3.871,8.0319 4.4718,-2.1549 z m 5.9514,-4.5406 c -0.9126,-2.6503 -4.414,-1.2885 -4.9647,-2.888 -0.201,-0.584 0.0292,-1.0156 0.6011,-1.2127 0.7123,-0.2453 1.0384,0.3607 1.2556,0.9912 l 1.7163,-0.5909 c -0.49,-1.8031 -1.6076,-2.2803 -3.324,-1.6894 -2.1483,0.7399 -2.4176,2.0074 -1.9631,3.3269 0.8643,2.5107 4.446,1.3818 4.9685,2.899 0.1972,0.5726 0.0377,1.0583 -0.5578,1.264 -0.9689,0.3335 -1.2375,-0.3321 -1.5148,-1.1379 l -1.7632,0.6074 c 0.4093,1.4914 1.2602,2.6352 3.4439,1.8838 1.3424,-0.462 2.8539,-1.2702 2.1022,-3.4534 z m -0.2541,-6.5036 0.3083,1.449 2.0292,-0.4314 1.546,7.2719 1.8238,-0.3879 -1.5458,-7.2712 2.0295,-0.4317 -0.3083,-1.4493 -5.8827,1.2506 z m 9.4532,7.2319 0.2687,-2.0216 2.5263,-0.3011 0.7238,1.9038 1.9499,-0.2326 -3.4583,-8.5669 -2.4402,0.2908 -1.3973,9.1457 1.8271,-0.2181 z m 2.24,-3.637 0,0 -1.7656,0.2102 0.3901,-3.9264 0.0248,-0.003 1.3507,3.7193 z m 6.3035,-4.5896 0.963,0.0176 c 1.2966,0.0224 1.2711,1.4669 1.2425,3.1092 -0.0387,2.2349 -0.2758,3.083 -1.4121,3.063 l -0.9011,-0.0161 0.1077,-6.1737 z m -1.9961,7.5121 0,0 3.0375,0.053 c 3.1855,0.0559 3.0303,-3.084 3.0543,-4.4548 0.0484,-2.7778 -0.3798,-4.4156 -2.8247,-4.4583 l -3.1114,-0.0545 -0.1557,8.9146 z m 10.6501,-0.6918 c -1.0393,-0.1461 -1.0364,-1.1438 -0.7182,-3.4058 0.3178,-2.2624 0.5898,-3.2219 1.6292,-3.0758 1.0395,0.1461 1.0364,1.1434 0.7184,3.4058 -0.3178,2.2621 -0.5898,3.2219 -1.6294,3.0758 z m -0.1856,1.3202 0,0 c 3.0453,0.4282 3.3614,-1.8218 3.6862,-4.1328 0.328,-2.3361 0.641,-4.5616 -2.4042,-4.9895 -3.0449,-0.4282 -3.3574,1.7973 -3.6858,4.1331 -0.3249,2.3116 -0.641,4.5613 2.4038,4.9892 z m 12.2512,-5.426 0.9261,0.2656 c 1.2464,0.3572 0.8482,1.7463 0.3955,3.3248 -0.6164,2.1487 -1.0647,2.9067 -2.1568,2.5935 l -0.8665,-0.2487 1.7017,-5.9352 z m -3.8721,6.7389 0,0 2.9204,0.8375 c 3.0627,0.8782 3.7254,-2.1949 4.1028,-3.5126 0.7658,-2.6707 0.7765,-4.3636 -1.5741,-5.0378 l -2.9915,-0.8575 -2.4576,8.5704 z m 10.7058,2.2934 c -0.9732,-0.3931 -0.7291,-1.3601 0.1267,-3.4782 0.8559,-2.1184 1.3518,-2.9834 2.3252,-2.5904 0.9733,0.3931 0.7292,1.3605 -0.1268,3.4786 -0.8557,2.118 -1.3516,2.9834 -2.3251,2.59 z m -0.4995,1.2368 0,0 c 2.8512,1.1517 3.7021,-0.955 4.5766,-3.1192 0.8833,-2.187 1.7255,-4.2705 -1.1257,-5.4226 -2.8511,-1.1517 -3.6929,0.9322 -4.5766,3.1192 -0.8742,2.1639 -1.7255,4.2705 1.1257,5.4226 z"
           class="fil3"
           id="_103953352"
           inkscape:connector-curvature="0"
           style="fill:#ffffff" />
      </g>
    </g>
    <g
       style="fill-rule:evenodd"
       id="g70"
       transform="matrix(1.25,0,0,1.25,-189.99736,-400.95619)" />
    <g
       style="fill:#000000"
       transform="matrix(0.7248334,0,0,0.7248334,-391.68943,80.067951)"
       id="g3061">
      <text
         xml:space="preserve"
         style="font-size:40px;font-style:normal;font-weight:normal;line-height:125%;letter-spacing:0px;word-spacing:0px;fill:#000000;fill-opacity:1;stroke:none;font-family:Sans"
         x="629.74054"
         y="188.73811"
         id="text3063"
         sodipodi:linespacing="125%"><tspan
           id="tspan3067"
           sodipodi:role="line"
           x="629.74054"
           y="188.73811"
           style="font-size:22.07299232000000089px;font-style:normal;font-variant:normal;font-weight:bold;font-stretch:normal;text-align:center;line-height:125%;writing-mode:lr-tb;text-anchor:middle;fill:#000000;font-family:Arial;-inkscape-font-specification:Arial Bold">Logo da</tspan><tspan
           sodipodi:role="line"
           x="629.74054"
           y="216.32936"
           style="font-size:22.07299232000000089px;font-style:normal;font-variant:normal;font-weight:bold;font-stretch:normal;text-align:center;line-height:125%;writing-mode:lr-tb;text-anchor:middle;fill:#000000;font-family:Arial;-inkscape-font-specification:Arial Bold"
           id="tspan3071">Instituio</tspan></text>
    </g>
  </g>
</svg>
